<svg xmlns="http://www.w3.org/2000/svg" viewBox="0 0 1136.31 120.4"><defs><style>.cls-1{isolation:isolate;}</style></defs><title>Fichier 2</title><g id="Calque_2" data-name="Calque 2"><g id="Layer_1" data-name="Layer 1"><polygon class="cls-1" points="21.46 6.33 0 113.62 118.58 113.39 124 87.87 35.91 87.87 52.17 6.33 21.46 6.33"/><polygon class="cls-1" points="141.58 51.04 147.4 6.33 173.05 6.33 160.62 51.04 141.58 51.04"/><polygon class="cls-1" points="168.46 113.62 198.14 113.62 222.11 6.33 192.43 6.33 168.46 113.62"/><polygon class="cls-1" points="250.65 113.62 219.83 113.62 243.8 6.33 282.61 6.33 332.84 76.69 348.25 6.33 378.5 6.33 356.24 113.62 321.43 113.62 267.2 41.31 250.65 113.62"/><path class="cls-1" d="M628.83,7.49H585.94L506.2,112.9h34.13L558.15,89h63.73l6.64,23.86h35.34ZM574.78,67.38l23.93-35.05h5.06l11.46,35.05Z"/><polygon class="cls-1" points="668.11 112.9 691.78 7.49 729.55 7.49 780.42 76.77 795.52 7.49 825.24 7.49 804.09 112.9 767.83 112.9 713.43 40.01 697.82 112.9 668.11 112.9"/><polygon class="cls-1" points="823.33 112.9 844.38 7.49 965.69 7.49 961.68 29.86 870.45 29.36 867.44 49.86 919.07 49.86 916.42 67.38 862.93 67.38 857.91 92.02 947.65 91.02 944.64 112.9 823.33 112.9"/><path class="cls-1" d="M1076.67,120.4c-32.89,0-59.65-27-59.65-60.2S1043.78,0,1076.67,0s59.64,27,59.64,60.2S1109.56,120.4,1076.67,120.4Zm0-110.16c-27.09,0-49.13,22.41-49.13,50s22,50,49.13,50,49.13-22.41,49.13-50S1103.76,10.24,1076.67,10.24Z"/><rect class="cls-1" x="1025.6" y="56.15" width="30.02" height="10.14"/><rect class="cls-1" x="1097.09" y="56.15" width="31.7" height="10.14"/><rect class="cls-1" x="1070.35" y="7.64" width="11.09" height="32.18"/><rect class="cls-1" x="1070.35" y="82.23" width="11.09" height="29.03"/><path class="cls-1" d="M507.47,39.16s-38.62-21.72-65.12-13.65C412,34.74,433.53,43.8,438.94,44c14.28.52,37.76,3,48.06,4.61,15.38,2.44,50.56,23.26,11.31,52.32s-96.62,10.73-96.62,10.73S376,100.52,376,97.1s17.18-20.69,17.18-20.69S424,95.29,451.74,92.06C472,89.7,478.34,90.5,480.17,81.53c2.2-10.77-60.86-10.89-70.24-15.4s-32.76-12.33-10-41.34c0,0,9.16-15.69,31.34-19.72S503.88-.08,523.74,18.4Z"/></g></g></svg>